<svg width="319" height="114" viewBox="0 0 319 114" fill="none" xmlns="http://www.w3.org/2000/svg">
<rect x="0.5" y="0.5" width="318" height="113" rx="9.5" fill="#FAFAFA" stroke="#D9D9D9" stroke-dasharray="10 10"/>
<path d="M168.726 38.033L162.386 31.754C161.901 31.273 161.231 31 160.536 31H151.125C149.681 31 148.513 32.17 148.513 33.6L148.5 54.4C148.5 55.83 149.668 57 151.112 57H166.875C168.319 57 169.5 55.83 169.5 54.4V39.879C169.5 39.19 169.224 38.527 168.726 38.033ZM162.675 47.9H160.312V51.8C160.312 52.515 159.722 53.1 159 53.1C158.278 53.1 157.688 52.515 157.688 51.8V47.9H155.338C154.747 47.9 154.459 47.198 154.879 46.795L158.554 43.168C158.816 42.921 159.223 42.921 159.486 43.168L163.148 46.795C163.541 47.198 163.253 47.9 162.675 47.9ZM161.625 40.1C160.903 40.1 160.312 39.515 160.312 38.8V32.95L167.531 40.1H161.625Z" fill="#4381FF"/>
<path d="M136.15 73.42C136.543 73.4933 136.867 73.69 137.12 74.01C137.373 74.33 137.5 74.6967 137.5 75.11C137.5 75.4833 137.407 75.8133 137.22 76.1C137.04 76.38 136.777 76.6 136.43 76.76C136.083 76.92 135.673 77 135.2 77H132.19V70.02H135.07C135.543 70.02 135.95 70.0967 136.29 70.25C136.637 70.4033 136.897 70.6167 137.07 70.89C137.25 71.1633 137.34 71.4733 137.34 71.82C137.34 72.2267 137.23 72.5667 137.01 72.84C136.797 73.1133 136.51 73.3067 136.15 73.42ZM133.59 72.9H134.87C135.203 72.9 135.46 72.8267 135.64 72.68C135.82 72.5267 135.91 72.31 135.91 72.03C135.91 71.75 135.82 71.5333 135.64 71.38C135.46 71.2267 135.203 71.15 134.87 71.15H133.59V72.9ZM135 75.86C135.34 75.86 135.603 75.78 135.79 75.62C135.983 75.46 136.08 75.2333 136.08 74.94C136.08 74.64 135.98 74.4067 135.78 74.24C135.58 74.0667 135.31 73.98 134.97 73.98H133.59V75.86H135ZM139.816 72.32C139.996 72.0267 140.229 71.7967 140.516 71.63C140.809 71.4633 141.142 71.38 141.516 71.38V72.85H141.146C140.706 72.85 140.372 72.9533 140.146 73.16C139.926 73.3667 139.816 73.7267 139.816 74.24V77H138.416V71.46H139.816V72.32ZM144.719 77.09C144.185 77.09 143.705 76.9733 143.279 76.74C142.852 76.5 142.515 76.1633 142.269 75.73C142.029 75.2967 141.909 74.7967 141.909 74.23C141.909 73.6633 142.032 73.1633 142.279 72.73C142.532 72.2967 142.875 71.9633 143.309 71.73C143.742 71.49 144.225 71.37 144.759 71.37C145.292 71.37 145.775 71.49 146.209 71.73C146.642 71.9633 146.982 72.2967 147.229 72.73C147.482 73.1633 147.609 73.6633 147.609 74.23C147.609 74.7967 147.479 75.2967 147.219 75.73C146.965 76.1633 146.619 76.5 146.179 76.74C145.745 76.9733 145.259 77.09 144.719 77.09ZM144.719 75.87C144.972 75.87 145.209 75.81 145.429 75.69C145.655 75.5633 145.835 75.3767 145.969 75.13C146.102 74.8833 146.169 74.5833 146.169 74.23C146.169 73.7033 146.029 73.3 145.749 73.02C145.475 72.7333 145.139 72.59 144.739 72.59C144.339 72.59 144.002 72.7333 143.729 73.02C143.462 73.3 143.329 73.7033 143.329 74.23C143.329 74.7567 143.459 75.1633 143.719 75.45C143.985 75.73 144.319 75.87 144.719 75.87ZM156.116 71.46L154.496 77H152.986L151.976 73.13L150.966 77H149.446L147.816 71.46H149.236L150.216 75.68L151.276 71.46H152.756L153.796 75.67L154.776 71.46H156.116ZM158.793 77.09C158.34 77.09 157.933 77.01 157.573 76.85C157.213 76.6833 156.927 76.46 156.713 76.18C156.507 75.9 156.393 75.59 156.373 75.25H157.783C157.81 75.4633 157.913 75.64 158.093 75.78C158.28 75.92 158.51 75.99 158.783 75.99C159.05 75.99 159.257 75.9367 159.403 75.83C159.557 75.7233 159.633 75.5867 159.633 75.42C159.633 75.24 159.54 75.1067 159.353 75.02C159.173 74.9267 158.883 74.8267 158.483 74.72C158.07 74.62 157.73 74.5167 157.463 74.41C157.203 74.3033 156.977 74.14 156.783 73.92C156.597 73.7 156.503 73.4033 156.503 73.03C156.503 72.7233 156.59 72.4433 156.763 72.19C156.943 71.9367 157.197 71.7367 157.523 71.59C157.857 71.4433 158.247 71.37 158.693 71.37C159.353 71.37 159.88 71.5367 160.273 71.87C160.667 72.1967 160.883 72.64 160.923 73.2H159.583C159.563 72.98 159.47 72.8067 159.303 72.68C159.143 72.5467 158.927 72.48 158.653 72.48C158.4 72.48 158.203 72.5267 158.063 72.62C157.93 72.7133 157.863 72.8433 157.863 73.01C157.863 73.1967 157.957 73.34 158.143 73.44C158.33 73.5333 158.62 73.63 159.013 73.73C159.413 73.83 159.743 73.9333 160.003 74.04C160.263 74.1467 160.487 74.3133 160.673 74.54C160.867 74.76 160.967 75.0533 160.973 75.42C160.973 75.74 160.883 76.0267 160.703 76.28C160.53 76.5333 160.277 76.7333 159.943 76.88C159.617 77.02 159.233 77.09 158.793 77.09ZM167.072 74.11C167.072 74.31 167.059 74.49 167.032 74.65H162.982C163.016 75.05 163.156 75.3633 163.402 75.59C163.649 75.8167 163.952 75.93 164.312 75.93C164.832 75.93 165.202 75.7067 165.422 75.26H166.932C166.772 75.7933 166.466 76.2333 166.012 76.58C165.559 76.92 165.002 77.09 164.342 77.09C163.809 77.09 163.329 76.9733 162.902 76.74C162.482 76.5 162.152 76.1633 161.912 75.73C161.679 75.2967 161.562 74.7967 161.562 74.23C161.562 73.6567 161.679 73.1533 161.912 72.72C162.146 72.2867 162.472 71.9533 162.892 71.72C163.312 71.4867 163.796 71.37 164.342 71.37C164.869 71.37 165.339 71.4833 165.752 71.71C166.172 71.9367 166.496 72.26 166.722 72.68C166.956 73.0933 167.072 73.57 167.072 74.11ZM165.622 73.71C165.616 73.35 165.486 73.0633 165.232 72.85C164.979 72.63 164.669 72.52 164.302 72.52C163.956 72.52 163.662 72.6267 163.422 72.84C163.189 73.0467 163.046 73.3367 162.992 73.71H165.622ZM174.387 70.02V71.15H171.477V72.94H173.707V74.05H171.477V77H170.077V70.02H174.387ZM175.89 70.8C175.643 70.8 175.437 70.7233 175.27 70.57C175.11 70.41 175.03 70.2133 175.03 69.98C175.03 69.7467 175.11 69.5533 175.27 69.4C175.437 69.24 175.643 69.16 175.89 69.16C176.137 69.16 176.34 69.24 176.5 69.4C176.667 69.5533 176.75 69.7467 176.75 69.98C176.75 70.2133 176.667 70.41 176.5 70.57C176.34 70.7233 176.137 70.8 175.89 70.8ZM176.58 71.46V77H175.18V71.46H176.58ZM179.163 69.6V77H177.763V69.6H179.163ZM185.496 74.11C185.496 74.31 185.483 74.49 185.456 74.65H181.406C181.44 75.05 181.58 75.3633 181.826 75.59C182.073 75.8167 182.376 75.93 182.736 75.93C183.256 75.93 183.626 75.7067 183.846 75.26H185.356C185.196 75.7933 184.89 76.2333 184.436 76.58C183.983 76.92 183.426 77.09 182.766 77.09C182.233 77.09 181.753 76.9733 181.326 76.74C180.906 76.5 180.576 76.1633 180.336 75.73C180.103 75.2967 179.986 74.7967 179.986 74.23C179.986 73.6567 180.103 73.1533 180.336 72.72C180.57 72.2867 180.896 71.9533 181.316 71.72C181.736 71.4867 182.22 71.37 182.766 71.37C183.293 71.37 183.763 71.4833 184.176 71.71C184.596 71.9367 184.92 72.26 185.146 72.68C185.38 73.0933 185.496 73.57 185.496 74.11ZM184.046 73.71C184.04 73.35 183.91 73.0633 183.656 72.85C183.403 72.63 183.093 72.52 182.726 72.52C182.38 72.52 182.086 72.6267 181.846 72.84C181.613 73.0467 181.47 73.3367 181.416 73.71H184.046Z" fill="#A0A0A0"/>
</svg>
