<svg width="319" height="114" viewBox="0 0 319 114" fill="none" xmlns="http://www.w3.org/2000/svg">
<rect x="0.5" y="0.5" width="318" height="113" rx="9.5" fill="#FAFAFA" stroke="#D9D9D9" stroke-dasharray="10 10"/>
<path fill-rule="evenodd" clip-rule="evenodd" d="M161.4 61.4C162.408 61.4 163.374 61.8004 164.087 62.513C164.8 63.2256 165.2 64.1922 165.2 65.2C165.2 66.2078 164.8 67.1744 164.087 67.887C163.374 68.5996 162.408 69 161.4 69C160.392 69 159.426 68.5996 158.713 67.887C158 67.1744 157.6 66.2078 157.6 65.2C157.6 64.1922 158 63.2256 158.713 62.513C159.426 61.8004 160.392 61.4 161.4 61.4ZM149.508 55.7C150.768 55.7 151.976 56.2004 152.867 57.0912C153.757 57.982 154.258 59.1902 154.258 60.45C154.258 61.7098 153.757 62.918 152.867 63.8088C151.976 64.6996 150.768 65.2 149.508 65.2C148.248 65.2 147.04 64.6996 146.149 63.8088C145.258 62.918 144.758 61.7098 144.758 60.45C144.758 59.1902 145.258 57.982 146.149 57.0912C147.04 56.2004 148.248 55.7 149.508 55.7ZM171.506 56.65C172.514 56.65 173.48 57.0504 174.193 57.763C174.906 58.4756 175.306 59.4422 175.306 60.45C175.306 61.4578 174.906 62.4244 174.193 63.137C173.48 63.8496 172.514 64.25 171.506 64.25C170.498 64.25 169.532 63.8496 168.819 63.137C168.106 62.4244 167.706 61.4578 167.706 60.45C167.706 59.4422 168.106 58.4756 168.819 57.763C169.532 57.0504 170.498 56.65 171.506 56.65ZM175.65 48.7061C176.406 48.7061 177.131 49.0064 177.665 49.5408C178.2 50.0753 178.5 50.8002 178.5 51.5561C178.5 52.312 178.2 53.0369 177.665 53.5714C177.131 54.1058 176.406 54.4061 175.65 54.4061C174.894 54.4061 174.169 54.1058 173.635 53.5714C173.1 53.0369 172.8 52.312 172.8 51.5561C172.8 50.8002 173.1 50.0753 173.635 49.5408C174.169 49.0064 174.894 48.7061 175.65 48.7061ZM145.25 42.4C146.51 42.4 147.718 42.9004 148.609 43.7912C149.5 44.682 150 45.8902 150 47.15C150 48.4098 149.5 49.618 148.609 50.5088C147.718 51.3996 146.51 51.9 145.25 51.9C143.99 51.9 142.782 51.3996 141.891 50.5088C141 49.618 140.5 48.4098 140.5 47.15C140.5 45.8902 141 44.682 141.891 43.7912C142.782 42.9004 143.99 42.4 145.25 42.4ZM174.293 40.8933C174.797 40.8933 175.281 41.0935 175.637 41.4498C175.993 41.8061 176.193 42.2894 176.193 42.7933C176.193 43.2972 175.993 43.7805 175.637 44.1368C175.281 44.4931 174.797 44.6933 174.293 44.6933C173.789 44.6933 173.306 44.4931 172.95 44.1368C172.594 43.7805 172.393 43.2972 172.393 42.7933C172.393 42.2894 172.594 41.8061 172.95 41.4498C173.306 41.0935 173.789 40.8933 174.293 40.8933ZM155.7 31C157.212 31 158.662 31.6005 159.731 32.6695C160.799 33.7384 161.4 35.1883 161.4 36.7C161.4 38.2117 160.799 39.6616 159.731 40.7305C158.662 41.7995 157.212 42.4 155.7 42.4C154.188 42.4 152.738 41.7995 151.669 40.7305C150.601 39.6616 150 38.2117 150 36.7C150 35.1883 150.601 33.7384 151.669 32.6695C152.738 31.6005 154.188 31 155.7 31ZM169.95 36.7C170.202 36.7 170.444 36.8001 170.622 36.9782C170.8 37.1564 170.9 37.398 170.9 37.65C170.9 37.902 170.8 38.1436 170.622 38.3218C170.444 38.4999 170.202 38.6 169.95 38.6C169.698 38.6 169.456 38.4999 169.278 38.3218C169.1 38.1436 169 37.902 169 37.65C169 37.398 169.1 37.1564 169.278 36.9782C169.456 36.8001 169.698 36.7 169.95 36.7Z" fill="#4381FF"/>
<path d="M135.96 82.02L133.4 89H131.7L129.14 82.02H130.64L132.56 87.57L134.47 82.02H135.96ZM136.239 86.21C136.239 85.65 136.349 85.1533 136.569 84.72C136.796 84.2867 137.099 83.9533 137.479 83.72C137.866 83.4867 138.296 83.37 138.769 83.37C139.183 83.37 139.543 83.4533 139.849 83.62C140.163 83.7867 140.413 83.9967 140.599 84.25V83.46H142.009V89H140.599V88.19C140.419 88.45 140.169 88.6667 139.849 88.84C139.536 89.0067 139.173 89.09 138.759 89.09C138.293 89.09 137.866 88.97 137.479 88.73C137.099 88.49 136.796 88.1533 136.569 87.72C136.349 87.28 136.239 86.7767 136.239 86.21ZM140.599 86.23C140.599 85.89 140.533 85.6 140.399 85.36C140.266 85.1133 140.086 84.9267 139.859 84.8C139.633 84.6667 139.389 84.6 139.129 84.6C138.869 84.6 138.629 84.6633 138.409 84.79C138.189 84.9167 138.009 85.1033 137.869 85.35C137.736 85.59 137.669 85.8767 137.669 86.21C137.669 86.5433 137.736 86.8367 137.869 87.09C138.009 87.3367 138.189 87.5267 138.409 87.66C138.636 87.7933 138.876 87.86 139.129 87.86C139.389 87.86 139.633 87.7967 139.859 87.67C140.086 87.5367 140.266 87.35 140.399 87.11C140.533 86.8633 140.599 86.57 140.599 86.23ZM144.577 81.6V89H143.177V81.6H144.577ZM146.47 82.8C146.223 82.8 146.017 82.7233 145.85 82.57C145.69 82.41 145.61 82.2133 145.61 81.98C145.61 81.7467 145.69 81.5533 145.85 81.4C146.017 81.24 146.223 81.16 146.47 81.16C146.717 81.16 146.92 81.24 147.08 81.4C147.247 81.5533 147.33 81.7467 147.33 81.98C147.33 82.2133 147.247 82.41 147.08 82.57C146.92 82.7233 146.717 82.8 146.47 82.8ZM147.16 83.46V89H145.76V83.46H147.16ZM147.983 86.21C147.983 85.65 148.093 85.1533 148.313 84.72C148.54 84.2867 148.846 83.9533 149.233 83.72C149.62 83.4867 150.05 83.37 150.523 83.37C150.883 83.37 151.226 83.45 151.553 83.61C151.88 83.7633 152.14 83.97 152.333 84.23V81.6H153.753V89H152.333V88.18C152.16 88.4533 151.916 88.6733 151.603 88.84C151.29 89.0067 150.926 89.09 150.513 89.09C150.046 89.09 149.62 88.97 149.233 88.73C148.846 88.49 148.54 88.1533 148.313 87.72C148.093 87.28 147.983 86.7767 147.983 86.21ZM152.343 86.23C152.343 85.89 152.276 85.6 152.143 85.36C152.01 85.1133 151.83 84.9267 151.603 84.8C151.376 84.6667 151.133 84.6 150.873 84.6C150.613 84.6 150.373 84.6633 150.153 84.79C149.933 84.9167 149.753 85.1033 149.613 85.35C149.48 85.59 149.413 85.8767 149.413 86.21C149.413 86.5433 149.48 86.8367 149.613 87.09C149.753 87.3367 149.933 87.5267 150.153 87.66C150.38 87.7933 150.62 87.86 150.873 87.86C151.133 87.86 151.376 87.7967 151.603 87.67C151.83 87.5367 152.01 87.35 152.143 87.11C152.276 86.8633 152.343 86.57 152.343 86.23ZM154.56 86.21C154.56 85.65 154.67 85.1533 154.89 84.72C155.117 84.2867 155.42 83.9533 155.8 83.72C156.187 83.4867 156.617 83.37 157.09 83.37C157.504 83.37 157.864 83.4533 158.17 83.62C158.484 83.7867 158.734 83.9967 158.92 84.25V83.46H160.33V89H158.92V88.19C158.74 88.45 158.49 88.6667 158.17 88.84C157.857 89.0067 157.494 89.09 157.08 89.09C156.614 89.09 156.187 88.97 155.8 88.73C155.42 88.49 155.117 88.1533 154.89 87.72C154.67 87.28 154.56 86.7767 154.56 86.21ZM158.92 86.23C158.92 85.89 158.854 85.6 158.72 85.36C158.587 85.1133 158.407 84.9267 158.18 84.8C157.954 84.6667 157.71 84.6 157.45 84.6C157.19 84.6 156.95 84.6633 156.73 84.79C156.51 84.9167 156.33 85.1033 156.19 85.35C156.057 85.59 155.99 85.8767 155.99 86.21C155.99 86.5433 156.057 86.8367 156.19 87.09C156.33 87.3367 156.51 87.5267 156.73 87.66C156.957 87.7933 157.197 87.86 157.45 87.86C157.71 87.86 157.954 87.7967 158.18 87.67C158.407 87.5367 158.587 87.35 158.72 87.11C158.854 86.8633 158.92 86.57 158.92 86.23ZM163.128 84.61V87.29C163.128 87.4767 163.171 87.6133 163.258 87.7C163.351 87.78 163.504 87.82 163.718 87.82H164.368V89H163.488C162.308 89 161.718 88.4267 161.718 87.28V84.61H161.058V83.46H161.718V82.09H163.128V83.46H164.368V84.61H163.128ZM165.885 82.8C165.638 82.8 165.431 82.7233 165.265 82.57C165.105 82.41 165.025 82.2133 165.025 81.98C165.025 81.7467 165.105 81.5533 165.265 81.4C165.431 81.24 165.638 81.16 165.885 81.16C166.131 81.16 166.335 81.24 166.495 81.4C166.661 81.5533 166.745 81.7467 166.745 81.98C166.745 82.2133 166.661 82.41 166.495 82.57C166.335 82.7233 166.131 82.8 165.885 82.8ZM166.575 83.46V89H165.175V83.46H166.575ZM170.828 83.38C171.488 83.38 172.021 83.59 172.428 84.01C172.835 84.4233 173.038 85.0033 173.038 85.75V89H171.638V85.94C171.638 85.5 171.528 85.1633 171.308 84.93C171.088 84.69 170.788 84.57 170.408 84.57C170.021 84.57 169.715 84.69 169.488 84.93C169.268 85.1633 169.158 85.5 169.158 85.94V89H167.758V83.46H169.158V84.15C169.345 83.91 169.581 83.7233 169.868 83.59C170.161 83.45 170.481 83.38 170.828 83.38ZM176.339 83.37C176.753 83.37 177.116 83.4533 177.429 83.62C177.743 83.78 177.989 83.99 178.169 84.25V83.46H179.579V89.04C179.579 89.5533 179.476 90.01 179.269 90.41C179.063 90.8167 178.753 91.1367 178.339 91.37C177.926 91.61 177.426 91.73 176.839 91.73C176.053 91.73 175.406 91.5467 174.899 91.18C174.399 90.8133 174.116 90.3133 174.049 89.68H175.439C175.513 89.9333 175.669 90.1333 175.909 90.28C176.156 90.4333 176.453 90.51 176.799 90.51C177.206 90.51 177.536 90.3867 177.789 90.14C178.043 89.9 178.169 89.5333 178.169 89.04V88.18C177.989 88.44 177.739 88.6567 177.419 88.83C177.106 89.0033 176.746 89.09 176.339 89.09C175.873 89.09 175.446 88.97 175.059 88.73C174.673 88.49 174.366 88.1533 174.139 87.72C173.919 87.28 173.809 86.7767 173.809 86.21C173.809 85.65 173.919 85.1533 174.139 84.72C174.366 84.2867 174.669 83.9533 175.049 83.72C175.436 83.4867 175.866 83.37 176.339 83.37ZM178.169 86.23C178.169 85.89 178.103 85.6 177.969 85.36C177.836 85.1133 177.656 84.9267 177.429 84.8C177.203 84.6667 176.959 84.6 176.699 84.6C176.439 84.6 176.199 84.6633 175.979 84.79C175.759 84.9167 175.579 85.1033 175.439 85.35C175.306 85.59 175.239 85.8767 175.239 86.21C175.239 86.5433 175.306 86.8367 175.439 87.09C175.579 87.3367 175.759 87.5267 175.979 87.66C176.206 87.7933 176.446 87.86 176.699 87.86C176.959 87.86 177.203 87.7967 177.429 87.67C177.656 87.5367 177.836 87.35 177.969 87.11C178.103 86.8633 178.169 86.57 178.169 86.23ZM181.367 89.07C181.113 89.07 180.903 88.9933 180.737 88.84C180.577 88.68 180.497 88.4833 180.497 88.25C180.497 88.0167 180.577 87.8233 180.737 87.67C180.903 87.51 181.113 87.43 181.367 87.43C181.613 87.43 181.817 87.51 181.977 87.67C182.137 87.8233 182.217 88.0167 182.217 88.25C182.217 88.4833 182.137 88.68 181.977 88.84C181.817 88.9933 181.613 89.07 181.367 89.07ZM183.764 89.07C183.511 89.07 183.301 88.9933 183.134 88.84C182.974 88.68 182.894 88.4833 182.894 88.25C182.894 88.0167 182.974 87.8233 183.134 87.67C183.301 87.51 183.511 87.43 183.764 87.43C184.011 87.43 184.214 87.51 184.374 87.67C184.534 87.8233 184.614 88.0167 184.614 88.25C184.614 88.4833 184.534 88.68 184.374 88.84C184.214 88.9933 184.011 89.07 183.764 89.07ZM186.162 89.07C185.909 89.07 185.699 88.9933 185.532 88.84C185.372 88.68 185.292 88.4833 185.292 88.25C185.292 88.0167 185.372 87.8233 185.532 87.67C185.699 87.51 185.909 87.43 186.162 87.43C186.409 87.43 186.612 87.51 186.772 87.67C186.932 87.8233 187.012 88.0167 187.012 88.25C187.012 88.4833 186.932 88.68 186.772 88.84C186.612 88.9933 186.409 89.07 186.162 89.07ZM188.56 89.07C188.306 89.07 188.096 88.9933 187.93 88.84C187.77 88.68 187.69 88.4833 187.69 88.25C187.69 88.0167 187.77 87.8233 187.93 87.67C188.096 87.51 188.306 87.43 188.56 87.43C188.806 87.43 189.01 87.51 189.17 87.67C189.33 87.8233 189.41 88.0167 189.41 88.25C189.41 88.4833 189.33 88.68 189.17 88.84C189.01 88.9933 188.806 89.07 188.56 89.07Z" fill="#4381FF"/>
</svg>
